<?xml version="1.0" standalone="no"?><!DOCTYPE svg PUBLIC "-//W3C//DTD SVG 1.1//EN" "http://www.w3.org/Graphics/SVG/1.1/DTD/svg11.dtd"><svg t="1609918231004" class="icon" viewBox="0 0 1024 1024" version="1.1" xmlns="http://www.w3.org/2000/svg" p-id="9349" xmlns:xlink="http://www.w3.org/1999/xlink" width="32" height="32"><defs><style type="text/css"></style></defs><path d="M745.6 134.528L187.904 692.224l0.256 196.992 196.992 0.384 557.824-557.824-197.376-197.248z" fill="#FFFFFF" p-id="9350"></path><path d="M385.152 908.8H188.16a19.2 19.2 0 0 1-19.2-19.2V692.608a19.2 19.2 0 0 1 5.376-14.208L732.032 120.832a19.2 19.2 0 0 1 27.136 0l197.376 197.376a19.2 19.2 0 0 1 0 27.136L398.72 903.168a19.2 19.2 0 0 1-13.568 5.632zM207.36 870.4h169.856l538.496-538.624-170.112-170.112L207.104 700.16z" fill="#501192" p-id="9351"></path><path d="M613.888 293.376L207.104 700.16v11.264l158.848 158.848 11.264 0.128 406.784-406.912-170.112-170.112z" fill="#DED5EB" p-id="9352"></path><path d="M326.5536 723.7504l358.8608-358.8736 27.1616 27.1488-358.8736 358.8736z" fill="#501192" p-id="9353"></path></svg>