<?xml version="1.0" standalone="no"?><!DOCTYPE svg PUBLIC "-//W3C//DTD SVG 1.1//EN" "http://www.w3.org/Graphics/SVG/1.1/DTD/svg11.dtd"><svg t="1609999423023" class="icon" viewBox="0 0 1024 1024" version="1.1" xmlns="http://www.w3.org/2000/svg" p-id="7774" xmlns:xlink="http://www.w3.org/1999/xlink" width="32" height="32"><defs><style type="text/css"></style></defs><path d="M591.2832 947.2h-153.4464a50.80576 50.80576 0 0 1-50.76992-50.73408v-81.64352a327.29088 327.29088 0 0 1-71.168-41.10848l-70.79424 40.84736a50.84672 50.84672 0 0 1-69.36064-18.58048l-76.73856-132.77184A50.688 50.688 0 0 1 117.6064 593.92l70.73792-40.82176a330.0096 330.0096 0 0 1 0-82.17088L117.58592 430.08a50.688 50.688 0 0 1-18.58048-69.30432l76.71808-132.76672A50.86208 50.86208 0 0 1 245.07392 209.408L315.904 250.28096a327.168 327.168 0 0 1 71.168-41.10336V127.53408A50.81088 50.81088 0 0 1 437.8368 76.8h153.4464a50.80576 50.80576 0 0 1 50.76992 50.73408v81.64352a327.3728 327.3728 0 0 1 71.168 41.10336l70.79424-40.84224a50.86208 50.86208 0 0 1 69.36064 18.58048l76.71808 132.77184A50.688 50.688 0 0 1 911.5136 430.08l-70.73792 40.81152a329.68192 329.68192 0 0 1 0 82.17088l70.7584 40.8576a50.688 50.688 0 0 1 18.5856 69.28896l-76.7232 132.79232a50.86208 50.86208 0 0 1-69.34016 18.57536l-70.8096-40.85248a327.38304 327.38304 0 0 1-71.1936 41.10848v81.64352a50.80576 50.80576 0 0 1-50.76992 50.72384z m-131.79392-72.36608h110.14144V800.0512a51.072 51.072 0 0 1 33.44384-47.65184 255.17568 255.17568 0 0 0 75.53536-43.60192 51.12832 51.12832 0 0 1 58.0352-5.1456l64.85504 37.42208 55.07584-95.31392-64.78336-37.376a51.02592 51.02592 0 0 1-24.576-52.736 257.536 257.536 0 0 0 0-87.31136 51.05664 51.05664 0 0 1 24.576-52.736l64.78848-37.376-55.08096-95.29344-64.8448 37.40672a51.1488 51.1488 0 0 1-58.05056-5.12 255.23712 255.23712 0 0 0-75.51488-43.60192 51.06688 51.06688 0 0 1-33.4592-47.65184V149.16608H459.48928V223.9488a51.072 51.072 0 0 1-33.44384 47.65184 255.1552 255.1552 0 0 0-75.53536 43.60192 51.10784 51.10784 0 0 1-58.04032 5.12L227.61984 282.9312 172.544 378.24l64.78336 37.376a51.05664 51.05664 0 0 1 24.576 52.736 257.77664 257.77664 0 0 0 0 87.31648 51.03616 51.03616 0 0 1-24.61184 52.736l-64.76288 37.376 55.07072 95.31392 64.84992-37.41184a51.13856 51.13856 0 0 1 58.04544 5.12 255.16544 255.16544 0 0 0 75.52 43.60192 51.06176 51.06176 0 0 1 33.4592 47.65184v74.78272z m415.8464-218.24512z" fill="#4A4A4A" p-id="7775"></path><path d="M514.56 679.6544a166.784 166.784 0 1 1 166.87616-166.784 167.02464 167.02464 0 0 1-166.87616 166.784z m0-261.26848a94.48448 94.48448 0 1 0 94.53568 94.48448A94.6176 94.6176 0 0 0 514.56 418.38592z" fill="#FF7214" p-id="7776"></path></svg>